# Blender 5.0.1
# www.blender.org
mtllib door.mtl
o Door
v 0.044991 4.183135 -5.588941
v -0.054838 4.183135 -5.588941
v 0.044991 4.183135 -7.794649
v -0.054838 4.183135 -7.794649
v 0.044991 -0.107142 -7.794649
v 0.044991 -0.107142 -5.588941
v -0.054838 -0.107142 -5.588941
v -0.054838 -0.107142 -7.794649
v 0.044991 1.548753 -7.794649
v 0.044991 2.527240 -7.794649
v 0.044991 2.527239 -5.588941
v 0.044991 1.548753 -5.588941
v -0.054838 2.527239 -5.588941
v -0.054838 1.548753 -5.588941
v -0.054838 2.527239 -7.794649
v -0.054838 1.548753 -7.794649
v 0.044991 1.389824 -5.747870
v 0.044991 0.051786 -5.747870
v 0.044991 0.051786 -7.635720
v 0.044991 1.389824 -7.635720
v -0.054838 1.389824 -5.747870
v -0.054838 1.389824 -7.635720
v -0.054838 0.051786 -7.635720
v -0.054838 0.051786 -5.747870
v -0.054838 4.024206 -5.747870
v -0.054838 4.024206 -7.635720
v -0.054838 2.686168 -7.635720
v -0.054838 2.686168 -5.747870
v -0.054838 2.368310 -5.747870
v -0.054838 2.368310 -7.635720
v -0.054838 1.707682 -7.635720
v -0.054838 1.707682 -5.747870
v 0.044991 4.024206 -5.747870
v 0.044991 2.686168 -5.747870
v 0.044991 2.686169 -7.635720
v 0.044991 4.024206 -7.635720
v 0.044991 2.368310 -5.747870
v 0.044991 1.707682 -5.747870
v 0.044991 1.707682 -7.635720
v 0.044991 2.368311 -7.635720
v 0.061348 1.309819 -5.827875
v 0.061348 0.131792 -5.827875
v 0.061348 0.131792 -7.555715
v 0.061348 1.309819 -7.555715
v -0.071195 1.309819 -5.827875
v -0.071195 1.309819 -7.555715
v -0.071195 0.131792 -7.555715
v -0.071195 0.131792 -5.827875
v -0.071195 3.944201 -5.827875
v -0.071195 3.944201 -7.555715
v -0.071195 2.766174 -7.555715
v -0.071195 2.766174 -5.827875
v -0.071195 2.288305 -5.827875
v -0.071195 2.288305 -7.555715
v -0.071195 1.787687 -7.555715
v -0.071195 1.787687 -5.827875
v 0.061348 3.944201 -5.827875
v 0.061348 2.766174 -5.827875
v 0.061348 2.766174 -7.555715
v 0.061348 3.944201 -7.555715
v 0.061348 2.288305 -5.827875
v 0.061348 1.787687 -5.827875
v 0.061348 1.787687 -7.555715
v 0.061348 2.288306 -7.555715
v 0.044277 1.230331 -5.907363
v 0.044277 0.211279 -5.907363
v 0.044277 0.211279 -7.476227
v 0.044277 1.230331 -7.476227
v -0.054123 1.230331 -5.907363
v -0.054123 1.230331 -7.476227
v -0.054123 0.211279 -7.476227
v -0.054123 0.211279 -5.907363
v -0.054123 3.864713 -5.907363
v -0.054123 3.864713 -7.476227
v -0.054123 2.845661 -7.476227
v -0.054123 2.845661 -5.907363
v -0.054123 2.208817 -5.907363
v -0.054123 2.208817 -7.476227
v -0.054123 1.867175 -7.476227
v -0.054123 1.867175 -5.907363
v 0.044277 3.864713 -5.907363
v 0.044277 2.845661 -5.907363
v 0.044277 2.845662 -7.476227
v 0.044277 3.864713 -7.476227
v 0.044277 2.208817 -5.907363
v 0.044277 1.867175 -5.907363
v 0.044277 1.867175 -7.476227
v 0.044277 2.208818 -7.476227
vn -0.0000 -0.0000 1.0000
vn -0.0000 1.0000 -0.0000
vn -0.0000 -0.0000 -1.0000
vn -0.0000 -1.0000 -0.0000
vn 1.0000 -0.0000 -0.0000
vn -1.0000 -0.0000 -0.0000
vn 0.9797 -0.0000 0.2003
vn 0.9797 -0.2003 -0.0000
vn 0.9797 -0.0000 -0.2003
vn 0.9797 0.2003 -0.0000
vn -0.9797 0.2003 -0.0000
vn -0.9797 -0.0000 -0.2003
vn -0.9797 -0.2003 -0.0000
vn -0.9797 -0.0000 0.2003
vn 0.9777 -0.0000 -0.2100
vn 0.9777 0.2100 -0.0000
vn 0.9777 -0.0000 0.2100
vn 0.9777 -0.2100 -0.0000
vn -0.9777 -0.2100 -0.0000
vn -0.9777 -0.0000 0.2100
vn -0.9777 0.2100 -0.0000
vn -0.9777 -0.0000 -0.2100
vt 0.116983 0.000000
vt 0.000000 0.000000
vt 0.116983 0.000000
vt 0.000000 0.333333
vt 0.116983 0.333333
vt 0.116983 0.333333
vt 0.350950 0.333333
vt 0.350950 0.333333
vt 0.350950 0.000000
vt 0.350950 0.000000
vt 0.256462 0.048121
vt 0.328455 0.048121
vt 0.328455 0.285212
vt 0.256462 0.285213
vt 0.256462 0.048121
vt 0.256462 0.285212
vt 0.328455 0.285213
vt 0.328455 0.048121
vt 0.022495 0.048121
vt 0.022495 0.285212
vt 0.094488 0.285212
vt 0.094488 0.048121
vt 0.155052 0.048121
vt 0.155052 0.285212
vt 0.195898 0.285212
vt 0.195898 0.048121
vt 0.022495 0.048121
vt 0.094488 0.048121
vt 0.094488 0.285212
vt 0.022495 0.285212
vt 0.155052 0.048121
vt 0.195898 0.048121
vt 0.195898 0.285213
vt 0.155052 0.285213
vt 0.233967 0.333333
vt 0.233967 0.333333
vt 0.233967 0.000000
vt 0.233967 0.000000
vt 0.339722 0.024018
vt 0.245194 0.024018
vt 0.339722 0.309316
vt 0.245194 0.309316
vt 0.245194 0.309315
vt 0.245194 0.024018
vt 0.339722 0.309315
vt 0.339722 0.024018
vt 0.011228 0.309316
vt 0.011228 0.024018
vt 0.105756 0.309315
vt 0.105756 0.024018
vt 0.135984 0.309315
vt 0.135984 0.024018
vt 0.214966 0.309315
vt 0.214966 0.024018
vt 0.105756 0.024018
vt 0.011228 0.024018
vt 0.105756 0.309315
vt 0.011228 0.309315
vt 0.214966 0.024018
vt 0.135984 0.024018
vt 0.214966 0.309316
vt 0.135984 0.309316
vt 0.334070 0.036108
vt 0.250847 0.036108
vt 0.334070 0.297225
vt 0.250847 0.297225
vt 0.250847 0.297225
vt 0.250847 0.036108
vt 0.334070 0.297225
vt 0.334070 0.036108
vt 0.016880 0.297225
vt 0.016880 0.036108
vt 0.100103 0.297225
vt 0.100103 0.036108
vt 0.145549 0.297225
vt 0.145549 0.036108
vt 0.205401 0.297225
vt 0.205401 0.036108
vt 0.100103 0.036108
vt 0.016880 0.036108
vt 0.100103 0.297225
vt 0.016880 0.297225
vt 0.205401 0.036108
vt 0.145549 0.036108
vt 0.205401 0.297225
vt 0.145549 0.297225
s 0
usemtl Material.001
f 11/1/1 1/2/1 2/2/1 13/3/1
f 1/2/2 3/4/2 4/4/2 2/2/2
f 10/5/3 15/6/3 4/4/3 3/4/3
f 8/7/4 5/8/4 6/9/4 7/10/4
f 65/11/5 66/12/5 67/13/5 68/14/5
f 69/15/6 70/16/6 71/17/6 72/18/6
f 73/19/6 74/20/6 75/21/6 76/22/6
f 77/23/6 78/24/6 79/25/6 80/26/6
f 81/27/5 82/28/5 83/29/5 84/30/5
f 85/31/5 86/32/5 87/33/5 88/34/5
f 5/8/3 8/7/3 16/35/3 9/36/3
f 9/36/3 16/35/3 15/6/3 10/5/3
f 6/9/1 12/37/1 14/38/1 7/10/1
f 12/37/1 11/1/1 13/3/1 14/38/1
f 12/37/5 6/9/5 18/39/5 17/40/5
f 6/9/5 5/8/5 19/41/5 18/39/5
f 5/8/5 9/36/5 20/42/5 19/41/5
f 9/36/5 12/37/5 17/40/5 20/42/5
f 14/38/6 16/35/6 22/43/6 21/44/6
f 16/35/6 8/7/6 23/45/6 22/43/6
f 8/7/6 7/10/6 24/46/6 23/45/6
f 7/10/6 14/38/6 21/44/6 24/46/6
f 2/2/6 4/4/6 26/47/6 25/48/6
f 4/4/6 15/6/6 27/49/6 26/47/6
f 15/6/6 13/3/6 28/50/6 27/49/6
f 13/3/6 2/2/6 25/48/6 28/50/6
f 13/3/6 15/6/6 30/51/6 29/52/6
f 15/6/6 16/35/6 31/53/6 30/51/6
f 16/35/6 14/38/6 32/54/6 31/53/6
f 14/38/6 13/3/6 29/52/6 32/54/6
f 1/2/5 11/1/5 34/55/5 33/56/5
f 11/1/5 10/5/5 35/57/5 34/55/5
f 10/5/5 3/4/5 36/58/5 35/57/5
f 3/4/5 1/2/5 33/56/5 36/58/5
f 11/1/5 12/37/5 38/59/5 37/60/5
f 12/37/5 9/36/5 39/61/5 38/59/5
f 9/36/5 10/5/5 40/62/5 39/61/5
f 10/5/5 11/1/5 37/60/5 40/62/5
f 17/40/7 18/39/7 42/63/7 41/64/7
f 18/39/8 19/41/8 43/65/8 42/63/8
f 19/41/9 20/42/9 44/66/9 43/65/9
f 20/42/10 17/40/10 41/64/10 44/66/10
f 21/44/11 22/43/11 46/67/11 45/68/11
f 22/43/12 23/45/12 47/69/12 46/67/12
f 23/45/13 24/46/13 48/70/13 47/69/13
f 24/46/14 21/44/14 45/68/14 48/70/14
f 25/48/11 26/47/11 50/71/11 49/72/11
f 26/47/12 27/49/12 51/73/12 50/71/12
f 27/49/13 28/50/13 52/74/13 51/73/13
f 28/50/14 25/48/14 49/72/14 52/74/14
f 29/52/11 30/51/11 54/75/11 53/76/11
f 30/51/12 31/53/12 55/77/12 54/75/12
f 31/53/13 32/54/13 56/78/13 55/77/13
f 32/54/14 29/52/14 53/76/14 56/78/14
f 33/56/7 34/55/7 58/79/7 57/80/7
f 34/55/8 35/57/8 59/81/8 58/79/8
f 35/57/9 36/58/9 60/82/9 59/81/9
f 36/58/10 33/56/10 57/80/10 60/82/10
f 37/60/7 38/59/7 62/83/7 61/84/7
f 38/59/8 39/61/8 63/85/8 62/83/8
f 39/61/9 40/62/9 64/86/9 63/85/9
f 40/62/10 37/60/10 61/84/10 64/86/10
f 41/64/15 42/63/15 66/12/15 65/11/15
f 42/63/16 43/65/16 67/13/16 66/12/16
f 43/65/17 44/66/17 68/14/17 67/13/17
f 44/66/18 41/64/18 65/11/18 68/14/18
f 45/68/19 46/67/19 70/16/19 69/15/19
f 46/67/20 47/69/20 71/17/20 70/16/20
f 47/69/21 48/70/21 72/18/21 71/17/21
f 48/70/22 45/68/22 69/15/22 72/18/22
f 49/72/19 50/71/19 74/20/19 73/19/19
f 50/71/20 51/73/20 75/21/20 74/20/20
f 51/73/21 52/74/21 76/22/21 75/21/21
f 52/74/22 49/72/22 73/19/22 76/22/22
f 53/76/19 54/75/19 78/24/19 77/23/19
f 54/75/20 55/77/20 79/25/20 78/24/20
f 55/77/21 56/78/21 80/26/21 79/25/21
f 56/78/22 53/76/22 77/23/22 80/26/22
f 57/80/15 58/79/15 82/28/15 81/27/15
f 58/79/16 59/81/16 83/29/16 82/28/16
f 59/81/17 60/82/17 84/30/17 83/29/17
f 60/82/18 57/80/18 81/27/18 84/30/18
f 61/84/15 62/83/15 86/32/15 85/31/15
f 62/83/16 63/85/16 87/33/16 86/32/16
f 63/85/17 64/86/17 88/34/17 87/33/17
f 64/86/18 61/84/18 85/31/18 88/34/18
o Cylinder
v -0.138655 2.050143 -6.163342
v 0.146815 2.050143 -6.163342
v -0.138655 2.007297 -6.145594
v 0.146815 2.007297 -6.145594
v -0.138655 1.989550 -6.102749
v 0.146815 1.989550 -6.102749
v -0.138655 2.007297 -6.059904
v 0.146815 2.007297 -6.059904
v -0.138655 2.050143 -6.042156
v 0.146815 2.050143 -6.042156
v -0.138655 2.092988 -6.059904
v 0.146815 2.092988 -6.059904
v -0.138655 2.110735 -6.102749
v 0.146815 2.110735 -6.102749
v -0.138655 2.092988 -6.145594
v 0.146815 2.092988 -6.145594
v -0.205034 1.910084 -6.097456
v -0.109107 1.983365 -6.027762
v -0.241673 1.983365 -5.984688
v -0.323605 1.983365 -6.097456
v -0.241673 1.983365 -6.210224
v -0.109107 1.983365 -6.167150
v -0.168394 2.101938 -5.984688
v -0.300960 2.101938 -6.027762
v -0.300960 2.101938 -6.167150
v -0.168394 2.101938 -6.210224
v -0.086462 2.101937 -6.097456
v -0.205034 2.175218 -6.097456
v -0.226570 1.929883 -6.031173
v -0.148650 1.929883 -6.056491
v -0.170186 1.972956 -5.990208
v -0.092266 1.972956 -6.097456
v -0.148650 1.929883 -6.138421
v -0.274728 1.929883 -6.097456
v -0.296265 1.972956 -6.031173
v -0.226570 1.929883 -6.163739
v -0.296265 1.972956 -6.163739
v -0.170186 1.972956 -6.204704
v -0.078955 2.042651 -6.056491
v -0.078955 2.042651 -6.138421
v -0.205034 2.042651 -5.964889
v -0.127113 2.042651 -5.990207
v -0.331112 2.042651 -6.056491
v -0.282954 2.042651 -5.990207
v -0.282954 2.042651 -6.204705
v -0.331112 2.042651 -6.138421
v -0.127113 2.042651 -6.204705
v -0.205034 2.042651 -6.230023
v -0.113802 2.112346 -6.031173
v -0.239881 2.112346 -5.990208
v -0.317801 2.112346 -6.097456
v -0.239881 2.112346 -6.204704
v -0.113802 2.112346 -6.163739
v -0.183497 2.155420 -6.031173
v -0.135339 2.155419 -6.097456
v -0.261417 2.155420 -6.056491
v -0.261417 2.155420 -6.138421
v -0.183497 2.155420 -6.163739
v 0.207814 1.910084 -6.097456
v 0.303741 1.983365 -6.027762
v 0.171174 1.983365 -5.984688
v 0.089243 1.983365 -6.097456
v 0.171174 1.983365 -6.210224
v 0.303741 1.983365 -6.167150
v 0.244454 2.101938 -5.984688
v 0.111888 2.101938 -6.027762
v 0.111888 2.101938 -6.167150
v 0.244454 2.101938 -6.210224
v 0.326385 2.101937 -6.097456
v 0.207814 2.175218 -6.097456
v 0.186278 1.929883 -6.031173
v 0.264198 1.929883 -6.056491
v 0.242662 1.972956 -5.990208
v 0.320582 1.972956 -6.097456
v 0.264198 1.929883 -6.138421
v 0.138120 1.929883 -6.097456
v 0.116583 1.972956 -6.031173
v 0.186278 1.929883 -6.163739
v 0.116583 1.972956 -6.163739
v 0.242662 1.972956 -6.204704
v 0.333893 2.042651 -6.056491
v 0.333893 2.042651 -6.138421
v 0.207814 2.042651 -5.964889
v 0.285735 2.042651 -5.990207
v 0.081736 2.042651 -6.056491
v 0.129893 2.042651 -5.990207
v 0.129893 2.042651 -6.204705
v 0.081736 2.042651 -6.138421
v 0.285735 2.042651 -6.204705
v 0.207814 2.042651 -6.230023
v 0.299045 2.112346 -6.031173
v 0.172966 2.112346 -5.990208
v 0.095047 2.112346 -6.097456
v 0.172966 2.112346 -6.204704
v 0.299045 2.112346 -6.163739
v 0.229350 2.155420 -6.031173
v 0.277508 2.155419 -6.097456
v 0.151431 2.155420 -6.056491
v 0.151431 2.155420 -6.138421
v 0.229350 2.155420 -6.163739
vn -0.0000 -0.3827 -0.9239
vn -0.0000 -0.9239 -0.3827
vn -0.0000 -0.9239 0.3827
vn -0.0000 -0.3827 0.9239
vn -0.0000 0.3827 0.9239
vn -0.0000 0.9239 0.3827
vn 1.0000 -0.0000 -0.0000
vn -0.0000 0.9239 -0.3827
vn -0.0000 0.3827 -0.9239
vn -1.0000 -0.0000 -0.0000
vn 0.1024 -0.9435 0.3151
vn 0.7002 -0.6617 0.2680
vn -0.2680 -0.9435 0.1947
vn -0.2680 -0.9435 -0.1947
vn 0.1024 -0.9435 -0.3151
vn 0.9050 -0.3304 0.2680
vn 0.0247 -0.3304 0.9435
vn -0.8897 -0.3304 0.3151
vn -0.5746 -0.3304 -0.7488
vn 0.5346 -0.3304 -0.7779
vn 0.8026 -0.1256 0.5831
vn -0.3066 -0.1256 0.9435
vn -0.9921 -0.1256 -0.0000
vn -0.3066 -0.1256 -0.9435
vn 0.8026 -0.1256 -0.5831
vn 0.4089 0.6617 0.6284
vn -0.4713 0.6617 0.5831
vn -0.7002 0.6617 -0.2680
vn 0.0385 0.6617 -0.7488
vn 0.7240 0.6617 -0.1947
vn 0.2680 0.9435 -0.1947
vn 0.4911 0.7947 -0.3568
vn 0.4089 0.6617 -0.6284
vn -0.1024 0.9435 -0.3151
vn -0.1876 0.7947 -0.5774
vn -0.4713 0.6617 -0.5831
vn -0.3313 0.9435 -0.0000
vn -0.6071 0.7947 -0.0000
vn -0.7002 0.6617 0.2680
vn -0.1024 0.9435 0.3151
vn -0.1876 0.7947 0.5773
vn 0.0385 0.6617 0.7488
vn 0.2680 0.9435 0.1947
vn 0.4911 0.7947 0.3568
vn 0.7240 0.6617 0.1947
vn 0.8897 0.3304 -0.3151
vn 0.7947 0.1876 -0.5773
vn 0.5746 0.3304 -0.7488
vn -0.0247 0.3304 -0.9435
vn -0.3035 0.1876 -0.9342
vn -0.5346 0.3304 -0.7779
vn -0.9050 0.3304 -0.2680
vn -0.9822 0.1876 -0.0000
vn -0.9050 0.3304 0.2680
vn -0.5346 0.3304 0.7779
vn -0.3035 0.1876 0.9342
vn -0.0247 0.3304 0.9435
vn 0.5746 0.3304 0.7488
vn 0.7947 0.1876 0.5773
vn 0.8897 0.3304 0.3151
vn 0.3066 0.1256 -0.9435
vn 0.3035 -0.1876 -0.9342
vn 0.0247 -0.3304 -0.9435
vn -0.8026 0.1256 -0.5831
vn -0.7947 -0.1876 -0.5773
vn -0.8897 -0.3304 -0.3151
vn -0.8026 0.1256 0.5831
vn -0.7947 -0.1876 0.5773
vn -0.5746 -0.3304 0.7488
vn 0.3066 0.1256 0.9435
vn 0.3035 -0.1876 0.9342
vn 0.5346 -0.3304 0.7779
vn 0.9921 0.1256 -0.0000
vn 0.9822 -0.1876 -0.0000
vn 0.9050 -0.3304 -0.2680
vn 0.4713 -0.6617 -0.5831
vn 0.1876 -0.7947 -0.5774
vn -0.0385 -0.6617 -0.7488
vn -0.4089 -0.6617 -0.6284
vn -0.4911 -0.7947 -0.3568
vn -0.7240 -0.6617 -0.1947
vn -0.7240 -0.6617 0.1947
vn -0.4911 -0.7947 0.3568
vn -0.4089 -0.6617 0.6284
vn 0.7002 -0.6617 -0.2680
vn 0.6071 -0.7947 -0.0000
vn 0.3313 -0.9435 -0.0000
vn -0.0385 -0.6617 0.7488
vn 0.1876 -0.7947 0.5773
vn 0.4713 -0.6617 0.5831
vn -0.1876 0.7947 -0.5773
vn 0.1876 -0.7947 -0.5773
vt 1.000000 0.500000
vt 1.000000 1.000000
vt 0.875000 1.000000
vt 0.875000 0.500000
vt 0.750000 1.000000
vt 0.750000 0.500000
vt 0.625000 1.000000
vt 0.625000 0.500000
vt 0.500000 1.000000
vt 0.500000 0.500000
vt 0.375000 1.000000
vt 0.375000 0.500000
vt 0.250000 1.000000
vt 0.250000 0.500000
vt 0.419706 0.419706
vt 0.250000 0.490000
vt 0.080294 0.419706
vt 0.010000 0.250000
vt 0.080294 0.080294
vt 0.250000 0.010000
vt 0.419706 0.080294
vt 0.490000 0.250000
vt 0.125000 1.000000
vt 0.125000 0.500000
vt 0.000000 1.000000
vt 0.000000 0.500000
vt 0.750000 0.490000
vt 0.919706 0.419706
vt 0.990000 0.250000
vt 0.919706 0.080294
vt 0.750000 0.010000
vt 0.580294 0.080294
vt 0.510000 0.250000
vt 0.580294 0.419706
vt 0.181819 0.000000
vt 0.227273 0.078731
vt 0.136365 0.078731
vt 0.272728 0.157461
vt 0.318182 0.078731
vt 0.363637 0.157461
vt 0.909091 0.000000
vt 0.954545 0.078731
vt 0.863636 0.078731
vt 0.727273 0.000000
vt 0.772727 0.078731
vt 0.681818 0.078731
vt 0.545455 0.000000
vt 0.590909 0.078731
vt 0.500000 0.078731
vt 0.318182 0.236191
vt 0.090910 0.157461
vt 0.181819 0.157461
vt 0.136365 0.236191
vt 0.818182 0.157461
vt 0.909091 0.157461
vt 0.863636 0.236191
vt 0.636364 0.157461
vt 0.727273 0.157461
vt 0.681818 0.236191
vt 0.454546 0.157461
vt 0.545455 0.157461
vt 0.500000 0.236191
vt 0.227273 0.236191
vt 0.045455 0.236191
vt 0.772727 0.236191
vt 0.590909 0.236191
vt 0.409092 0.236191
vt 0.181819 0.314921
vt 0.272728 0.314921
vt 0.227273 0.393651
vt 0.000000 0.314921
vt 0.090910 0.314921
vt 0.045455 0.393651
vt 0.727273 0.314921
vt 0.818182 0.314921
vt 0.772727 0.393651
vt 0.545455 0.314921
vt 0.636364 0.314921
vt 0.590909 0.393651
vt 0.363637 0.314921
vt 0.454546 0.314921
vt 0.409092 0.393651
vt 0.500000 0.393651
vt 0.454546 0.472382
vt 0.681818 0.393651
vt 0.636364 0.472382
vt 0.863636 0.393651
vt 0.818182 0.472382
vt 0.909091 0.314921
vt 0.136365 0.393651
vt 0.090910 0.472382
vt 0.318182 0.393651
vt 0.272728 0.472382
vt 0.954545 0.236191
vt 1.000000 0.157461
vt 0.409092 0.078731
vt 0.363637 0.000000
s 0
usemtl Material
f 89/87/23 90/88/23 92/89/23 91/90/23
f 91/90/24 92/89/24 94/91/24 93/92/24
f 93/92/25 94/91/25 96/93/25 95/94/25
f 95/94/26 96/93/26 98/95/26 97/96/26
f 97/96/27 98/95/27 100/97/27 99/98/27
f 99/98/28 100/97/28 102/99/28 101/100/28
f 92/101/29 90/102/29 104/103/29 102/104/29 100/105/29 98/106/29 96/107/29 94/108/29
f 101/100/30 102/99/30 104/109/30 103/110/30
f 103/110/31 104/109/31 90/111/31 89/112/31
f 89/113/32 91/114/32 93/115/32 95/116/32 97/117/32 99/118/32 101/119/32 103/120/32
f 105/121/33 118/122/33 117/123/33
f 106/124/34 118/125/34 120/126/34
f 105/127/35 117/128/35 122/129/35
f 105/130/36 122/131/36 124/132/36
f 105/133/37 124/134/37 121/135/37
f 106/124/38 120/126/38 127/136/38
f 107/137/39 119/138/39 129/139/39
f 108/140/40 123/141/40 131/142/40
f 109/143/41 125/144/41 133/145/41
f 110/146/42 126/147/42 135/148/42
f 106/124/43 127/136/43 130/149/43
f 107/137/44 129/139/44 132/150/44
f 108/140/45 131/142/45 134/151/45
f 109/143/46 133/145/46 136/152/46
f 110/146/47 135/148/47 128/153/47
f 111/154/48 137/155/48 142/156/48
f 112/157/49 138/158/49 144/159/49
f 113/160/50 139/161/50 145/162/50
f 114/163/51 140/164/51 146/165/51
f 115/166/52 141/167/52 143/168/52
f 143/168/53 146/169/53 116/170/53
f 143/168/54 141/167/54 146/169/54
f 141/167/55 114/163/55 146/169/55
f 146/165/56 145/171/56 116/172/56
f 146/165/57 140/164/57 145/171/57
f 140/164/58 113/160/58 145/171/58
f 145/162/59 144/173/59 116/174/59
f 145/162/60 139/161/60 144/173/60
f 139/161/61 112/175/61 144/173/61
f 144/159/62 142/176/62 116/177/62
f 144/159/63 138/158/63 142/176/63
f 138/158/64 111/154/64 142/176/64
f 142/156/65 143/178/65 116/179/65
f 142/156/66 137/155/66 143/178/66
f 137/155/67 115/166/67 143/178/67
f 128/153/68 141/167/68 115/166/68
f 128/153/69 135/148/69 141/167/69
f 135/148/70 114/163/70 141/167/70
f 136/152/71 140/164/71 114/163/71
f 136/152/72 133/145/72 140/164/72
f 133/145/73 113/160/73 140/164/73
f 134/151/74 139/161/74 113/160/74
f 134/151/75 131/142/75 139/161/75
f 131/142/76 112/175/76 139/161/76
f 132/150/77 138/158/77 112/157/77
f 132/150/78 129/139/78 138/158/78
f 129/139/79 111/154/79 138/158/79
f 130/149/80 137/155/80 111/154/80
f 130/149/81 127/136/81 137/155/81
f 127/136/82 115/166/82 137/155/82
f 135/148/83 136/152/83 114/163/83
f 135/148/84 126/147/84 136/152/84
f 126/147/85 109/143/85 136/152/85
f 133/145/86 134/151/86 113/160/86
f 133/145/87 125/144/87 134/151/87
f 125/144/88 108/140/88 134/151/88
f 131/142/89 132/180/89 112/175/89
f 131/142/90 123/141/90 132/180/90
f 123/141/91 107/181/91 132/180/91
f 129/139/92 130/149/92 111/154/92
f 129/139/93 119/138/93 130/149/93
f 119/138/94 106/124/94 130/149/94
f 127/136/95 128/153/95 115/166/95
f 127/136/96 120/126/96 128/153/96
f 120/126/97 110/146/97 128/153/97
f 121/135/98 126/147/98 110/146/98
f 121/135/99 124/134/99 126/147/99
f 124/134/100 109/143/100 126/147/100
f 124/132/101 125/144/101 109/143/101
f 124/132/102 122/131/102 125/144/102
f 122/131/103 108/140/103 125/144/103
f 122/129/104 123/141/104 108/140/104
f 122/129/105 117/128/105 123/141/105
f 117/128/106 107/181/106 123/141/106
f 120/126/107 121/182/107 110/146/107
f 120/126/108 118/125/108 121/182/108
f 118/125/109 105/183/109 121/182/109
f 117/123/110 119/138/110 107/137/110
f 117/123/111 118/122/111 119/138/111
f 118/122/112 106/124/112 119/138/112
f 147/121/33 160/122/33 159/123/33
f 148/124/34 160/125/34 162/126/34
f 147/127/35 159/128/35 164/129/35
f 147/130/36 164/131/36 166/132/36
f 147/133/37 166/134/37 163/135/37
f 148/124/38 162/126/38 169/136/38
f 149/137/39 161/138/39 171/139/39
f 150/140/40 165/141/40 173/142/40
f 151/143/41 167/144/41 175/145/41
f 152/146/42 168/147/42 177/148/42
f 148/124/43 169/136/43 172/149/43
f 149/137/44 171/139/44 174/150/44
f 150/140/45 173/142/45 176/151/45
f 151/143/46 175/145/46 178/152/46
f 152/146/47 177/148/47 170/153/47
f 153/154/48 179/155/48 184/156/48
f 154/157/49 180/158/49 186/159/49
f 155/160/50 181/161/50 187/162/50
f 156/163/51 182/164/51 188/165/51
f 157/166/52 183/167/52 185/168/52
f 185/168/53 188/169/53 158/170/53
f 185/168/54 183/167/54 188/169/54
f 183/167/55 156/163/55 188/169/55
f 188/165/56 187/171/56 158/172/56
f 188/165/113 182/164/113 187/171/113
f 182/164/58 155/160/58 187/171/58
f 187/162/59 186/173/59 158/174/59
f 187/162/60 181/161/60 186/173/60
f 181/161/61 154/175/61 186/173/61
f 186/159/62 184/176/62 158/177/62
f 186/159/63 180/158/63 184/176/63
f 180/158/64 153/154/64 184/176/64
f 184/156/65 185/178/65 158/179/65
f 184/156/66 179/155/66 185/178/66
f 179/155/67 157/166/67 185/178/67
f 170/153/68 183/167/68 157/166/68
f 170/153/69 177/148/69 183/167/69
f 177/148/70 156/163/70 183/167/70
f 178/152/71 182/164/71 156/163/71
f 178/152/72 175/145/72 182/164/72
f 175/145/73 155/160/73 182/164/73
f 176/151/74 181/161/74 155/160/74
f 176/151/75 173/142/75 181/161/75
f 173/142/76 154/175/76 181/161/76
f 174/150/77 180/158/77 154/157/77
f 174/150/78 171/139/78 180/158/78
f 171/139/79 153/154/79 180/158/79
f 172/149/80 179/155/80 153/154/80
f 172/149/81 169/136/81 179/155/81
f 169/136/82 157/166/82 179/155/82
f 177/148/83 178/152/83 156/163/83
f 177/148/84 168/147/84 178/152/84
f 168/147/85 151/143/85 178/152/85
f 175/145/86 176/151/86 155/160/86
f 175/145/87 167/144/87 176/151/87
f 167/144/88 150/140/88 176/151/88
f 173/142/89 174/180/89 154/175/89
f 173/142/90 165/141/90 174/180/90
f 165/141/91 149/181/91 174/180/91
f 171/139/92 172/149/92 153/154/92
f 171/139/93 161/138/93 172/149/93
f 161/138/94 148/124/94 172/149/94
f 169/136/95 170/153/95 157/166/95
f 169/136/96 162/126/96 170/153/96
f 162/126/97 152/146/97 170/153/97
f 163/135/98 168/147/98 152/146/98
f 163/135/114 166/134/114 168/147/114
f 166/134/100 151/143/100 168/147/100
f 166/132/101 167/144/101 151/143/101
f 166/132/102 164/131/102 167/144/102
f 164/131/103 150/140/103 167/144/103
f 164/129/104 165/141/104 150/140/104
f 164/129/105 159/128/105 165/141/105
f 159/128/106 149/181/106 165/141/106
f 162/126/107 163/182/107 152/146/107
f 162/126/108 160/125/108 163/182/108
f 160/125/109 147/183/109 163/182/109
f 159/123/110 161/138/110 149/137/110
f 159/123/111 160/122/111 161/138/111
f 160/122/112 148/124/112 161/138/112
