# Blender 5.0.1
# www.blender.org
mtllib wall2.mtl
o Wall1
v 0.044991 6.507415 -3.328054
v 0.069172 -0.109709 -3.328054
v -0.054838 6.507415 -3.328054
v -0.079018 -0.109709 -3.328054
v 0.069172 1.745767 -3.328054
v -0.079018 1.745767 -3.328054
v 0.044991 6.507415 -5.533762
v 0.069172 -0.109709 -5.533762
v -0.054838 6.507415 -5.533762
v -0.079018 -0.109709 -5.533762
v -0.079018 1.745767 -5.533762
v 0.069172 1.745767 -5.533762
v -0.079018 1.528681 -3.545141
v -0.079018 1.528681 -5.316676
v -0.079018 0.107378 -5.316676
v -0.079018 0.107378 -3.545141
v 0.069172 1.528681 -3.545141
v 0.069172 0.107378 -3.545141
v 0.069172 0.107378 -5.316676
v 0.069172 1.528681 -5.316676
v -0.106596 1.438026 -3.635796
v -0.106596 1.438026 -5.226021
v -0.106596 0.198033 -5.226021
v -0.106596 0.198033 -3.635796
v 0.096751 1.438026 -3.635796
v 0.096751 0.198033 -3.635796
v 0.096751 0.198033 -5.226021
v 0.096751 1.438026 -5.226021
v -0.082722 1.344028 -3.729794
v -0.082722 1.344028 -5.132023
v -0.082722 0.292031 -5.132023
v -0.082722 0.292031 -3.729794
v 0.072878 1.344028 -3.729794
v 0.072878 0.292031 -3.729794
v 0.072878 0.292031 -5.132023
v 0.072878 1.344028 -5.132023
v 0.044991 1.862857 -3.328054
v -0.054838 1.862857 -3.328054
v 0.044991 1.862857 -5.533762
v -0.054838 1.862857 -5.533762
vn -0.0000 -0.0000 1.0000
vn -0.0000 -1.0000 -0.0000
vn 0.9793 0.2022 -0.0000
vn -0.9793 0.2022 -0.0000
vn -0.0000 1.0000 -0.0000
vn -1.0000 -0.0000 -0.0000
vn 1.0000 -0.0000 -0.0000
vn -0.0000 -0.0000 -1.0000
vn -0.9567 0.2910 -0.0000
vn -0.9567 -0.0000 -0.2910
vn -0.9567 -0.2910 -0.0000
vn -0.9567 -0.0000 0.2910
vn 0.9567 -0.0000 0.2910
vn 0.9567 -0.2910 -0.0000
vn 0.9567 -0.0000 -0.2910
vn 0.9567 0.2910 -0.0000
vn -0.9692 -0.2462 -0.0000
vn -0.9692 -0.0000 0.2462
vn -0.9692 0.2462 -0.0000
vn -0.9692 -0.0000 -0.2462
vn 0.9692 -0.0000 -0.2462
vn 0.9692 0.2462 -0.0000
vn 0.9692 -0.0000 0.2462
vn 0.9692 -0.2462 -0.0000
vt 0.701900 0.000000
vt 0.000000 0.000000
vt 0.701900 0.000000
vt 1.000000 0.333333
vt 1.000000 0.000000
vt 1.000000 0.333333
vt 0.719595 0.000000
vt 0.719595 0.333333
vt 0.701900 0.333333
vt 0.701900 0.333333
vt 0.719595 0.333333
vt 0.000000 0.333333
vt 0.780307 0.060712
vt 0.780307 0.272621
vt 0.939288 0.272621
vt 0.939288 0.060712
vt 0.780307 0.060712
vt 0.939288 0.060712
vt 0.939288 0.272621
vt 0.780307 0.272621
vt 0.752402 0.300527
vt 0.752402 0.032807
vt 0.967193 0.300527
vt 0.967193 0.032807
vt 0.967193 0.032807
vt 0.752402 0.032807
vt 0.967193 0.300527
vt 0.752402 0.300527
vt 0.766102 0.286827
vt 0.766102 0.046507
vt 0.953493 0.286827
vt 0.953493 0.046507
vt 0.953493 0.046507
vt 0.766102 0.046507
vt 0.766102 0.286827
s 0
usemtl Material_wall
f 37/1/1 1/2/1 3/2/1 38/3/1
f 8/4/2 2/5/2 4/5/2 10/6/2
f 2/5/1 5/7/1 6/7/1 4/5/1
f 37/1/3 5/7/3 12/8/3 39/9/3
f 38/3/4 40/10/4 11/11/4 6/7/4
f 1/2/5 7/12/5 9/12/5 3/2/5
f 29/13/6 30/14/6 31/15/6 32/16/6
f 33/17/7 34/18/7 35/19/7 36/20/7
f 6/7/6 11/11/6 14/21/6 13/22/6
f 11/11/6 10/6/6 15/23/6 14/21/6
f 10/6/6 4/5/6 16/24/6 15/23/6
f 4/5/6 6/7/6 13/22/6 16/24/6
f 40/10/8 39/9/8 12/8/8 11/11/8
f 5/7/7 2/5/7 18/25/7 17/26/7
f 2/5/7 8/4/7 19/27/7 18/25/7
f 8/4/7 12/8/7 20/28/7 19/27/7
f 12/8/7 5/7/7 17/26/7 20/28/7
f 8/4/8 10/6/8 11/11/8 12/8/8
f 13/22/9 14/21/9 22/29/9 21/30/9
f 14/21/10 15/23/10 23/31/10 22/29/10
f 15/23/11 16/24/11 24/32/11 23/31/11
f 16/24/12 13/22/12 21/30/12 24/32/12
f 17/26/13 18/25/13 26/33/13 25/34/13
f 18/25/14 19/27/14 27/31/14 26/33/14
f 19/27/15 20/28/15 28/35/15 27/31/15
f 20/28/16 17/26/16 25/34/16 28/35/16
f 21/30/17 22/29/17 30/14/17 29/13/17
f 22/29/18 23/31/18 31/15/18 30/14/18
f 23/31/19 24/32/19 32/16/19 31/15/19
f 24/32/20 21/30/20 29/13/20 32/16/20
f 25/34/21 26/33/21 34/18/21 33/17/21
f 26/33/22 27/31/22 35/19/22 34/18/22
f 27/31/23 28/35/23 36/20/23 35/19/23
f 28/35/24 25/34/24 33/17/24 36/20/24
f 3/2/6 9/12/6 40/10/6 38/3/6
f 1/2/7 37/1/7 39/9/7 7/12/7
f 39/9/8 40/10/8 9/12/8 7/12/8
f 5/7/1 37/1/1 38/3/1 6/7/1
