# Blender 5.0.1
# www.blender.org
mtllib wall3.mtl
o Wall2
v 0.044991 6.507415 -5.588941
v -0.054838 6.507415 -5.588941
v 0.044991 6.507415 -7.794649
v -0.054838 6.507415 -7.794649
v 0.044991 4.185136 -7.794649
v 0.044991 4.185136 -5.588941
v -0.054838 4.185136 -5.588941
v -0.054838 4.185136 -7.794649
vn -0.0000 -0.0000 1.0000
vn -0.0000 1.0000 -0.0000
vn -0.0000 -0.0000 -1.0000
vn -0.0000 -1.0000 -0.0000
vn 1.0000 -0.0000 -0.0000
vn -1.0000 -0.0000 -0.0000
vt 0.350950 0.000000
vt 0.000000 0.000000
vt 0.350950 0.000000
vt 0.000000 0.333333
vt 0.350950 0.333333
vt 0.350950 0.333333
s 0
usemtl Material_wall
f 6/1/1 1/2/1 2/2/1 7/3/1
f 1/2/2 3/4/2 4/4/2 2/2/2
f 5/5/3 8/6/3 4/4/3 3/4/3
f 8/6/4 5/5/4 6/1/4 7/3/4
f 1/2/5 6/1/5 5/5/5 3/4/5
f 2/2/6 4/4/6 8/6/6 7/3/6
