# Blender 5.0.1
# www.blender.org
mtllib wall1.mtl
o Wall0
v 0.072682 6.507415 3.364085
v 0.096864 -0.109709 3.364085
v 0.072682 6.507415 -3.253038
v 0.096864 -0.109709 -3.253038
v -0.027147 6.507415 3.364085
v -0.051327 -0.109709 3.364085
v -0.027147 6.507415 -3.253038
v -0.051327 -0.109709 -3.253038
v 0.096863 1.745767 3.364085
v 0.096863 1.745767 -3.253038
v -0.051327 1.745767 3.364085
v -0.051327 1.745767 -3.253038
v 0.072682 6.507415 -1.047330
v 0.072682 6.507415 1.158378
v 0.096864 -0.109709 1.158377
v 0.096864 -0.109709 -1.047330
v -0.027147 6.507415 -1.047330
v -0.027147 6.507415 1.158378
v -0.051327 -0.109709 1.158377
v -0.051327 -0.109709 -1.047330
v -0.051327 1.745767 -1.047330
v -0.051327 1.745767 1.158378
v 0.096863 1.745767 1.158377
v 0.096863 1.745767 -1.047330
v 0.096863 1.528681 -1.264417
v 0.096864 0.107378 -1.264417
v 0.096864 0.107378 -3.035952
v 0.096863 1.528681 -3.035952
v -0.051327 1.528681 -1.264416
v -0.051327 1.528681 -3.035952
v -0.051327 0.107378 -3.035952
v -0.051327 0.107378 -1.264417
v -0.051327 1.528681 3.146999
v -0.051327 1.528681 1.375464
v -0.051327 0.107378 1.375463
v -0.051327 0.107378 3.146999
v -0.051327 1.528681 0.941291
v -0.051327 1.528681 -0.830244
v -0.051327 0.107378 -0.830244
v -0.051327 0.107378 0.941291
v 0.096863 1.528681 3.146999
v 0.096864 0.107378 3.146999
v 0.096864 0.107378 1.375463
v 0.096863 1.528681 1.375463
v 0.096863 1.528681 0.941291
v 0.096864 0.107378 0.941291
v 0.096864 0.107378 -0.830244
v 0.096863 1.528681 -0.830244
v 0.124442 1.438026 -1.355072
v 0.124442 0.198033 -1.355072
v 0.124442 0.198033 -2.945297
v 0.124442 1.438026 -2.945297
v -0.078905 1.438026 -1.355071
v -0.078905 1.438026 -2.945297
v -0.078905 0.198033 -2.945297
v -0.078905 0.198033 -1.355072
v -0.078905 1.438026 3.056344
v -0.078905 1.438026 1.466119
v -0.078905 0.198033 1.466118
v -0.078905 0.198033 3.056344
v -0.078905 1.438026 0.850636
v -0.078905 1.438026 -0.739589
v -0.078905 0.198033 -0.739589
v -0.078905 0.198033 0.850636
v 0.124442 1.438026 3.056344
v 0.124442 0.198033 3.056344
v 0.124442 0.198033 1.466118
v 0.124442 1.438026 1.466118
v 0.124442 1.438026 0.850636
v 0.124442 0.198033 0.850636
v 0.124442 0.198033 -0.739589
v 0.124442 1.438026 -0.739589
v 0.100569 1.344028 -1.449069
v 0.100569 0.292031 -1.449069
v 0.100569 0.292031 -2.851299
v 0.100569 1.344028 -2.851299
v -0.055031 1.344028 -1.449069
v -0.055031 1.344028 -2.851299
v -0.055031 0.292031 -2.851299
v -0.055031 0.292031 -1.449069
v -0.055031 1.344028 2.962346
v -0.055031 1.344028 1.560117
v -0.055031 0.292031 1.560116
v -0.055031 0.292031 2.962346
v -0.055031 1.344028 0.756638
v -0.055031 1.344028 -0.645591
v -0.055031 0.292031 -0.645591
v -0.055031 0.292031 0.756638
v 0.100569 1.344028 2.962346
v 0.100569 0.292031 2.962346
v 0.100569 0.292031 1.560116
v 0.100569 1.344028 1.560116
v 0.100569 1.344028 0.756638
v 0.100569 0.292031 0.756638
v 0.100569 0.292031 -0.645591
v 0.100569 1.344028 -0.645591
v 0.072683 1.862857 -3.253038
v -0.027147 1.862857 -3.253038
v 0.072683 1.862857 3.364085
v -0.027147 1.862857 3.364085
v 0.072683 1.862857 1.158377
v 0.072683 1.862857 -1.047330
v -0.027147 1.862857 1.158378
v -0.027147 1.862857 -1.047330
vn 1.0000 -0.0000 -0.0000
vn -1.0000 -0.0000 -0.0000
vn -0.0000 1.0000 -0.0000
vn -0.0000 -0.0000 1.0000
vn -0.0000 -1.0000 -0.0000
vn -0.0000 -0.0000 -1.0000
vn -0.9793 0.2022 -0.0000
vn 0.9793 0.2022 -0.0000
vn 0.9567 -0.0000 0.2910
vn 0.9567 -0.2910 -0.0000
vn 0.9567 -0.0000 -0.2910
vn 0.9567 0.2910 -0.0000
vn -0.9567 0.2910 -0.0000
vn -0.9567 -0.0000 -0.2910
vn -0.9567 -0.2910 -0.0000
vn -0.9567 -0.0000 0.2910
vn 0.9692 -0.0000 -0.2462
vn 0.9692 0.2462 -0.0000
vn 0.9692 -0.0000 0.2462
vn 0.9692 -0.2462 -0.0000
vn -0.9692 -0.2462 -0.0000
vn -0.9692 -0.0000 0.2462
vn -0.9692 0.2462 -0.0000
vn -0.9692 -0.0000 -0.2462
vt 0.780307 0.727379
vt 0.939288 0.727379
vt 0.939288 0.939288
vt 0.780307 0.939288
vt 0.780307 0.727379
vt 0.000000 0.666667
vt 0.000000 1.000000
vt 0.701900 0.000000
vt 0.000000 0.000000
vt 0.701900 0.000000
vt 1.000000 0.333333
vt 1.000000 0.000000
vt 1.000000 0.333333
vt 0.719595 1.000000
vt 1.000000 1.000000
vt 0.701900 1.000000
vt 0.719595 0.000000
vt 0.701900 0.666667
vt 0.719595 0.666667
vt 0.701900 0.666667
vt 0.719595 0.666667
vt 0.719595 0.333333
vt 0.701900 0.333333
vt 0.701900 0.333333
vt 0.719595 0.333333
vt 1.000000 0.666667
vt 0.000000 0.333333
vt 0.780307 0.060712
vt 0.780307 0.272621
vt 0.939288 0.272621
vt 0.939288 0.060712
vt 0.780307 0.394045
vt 0.780307 0.605955
vt 0.939288 0.605955
vt 0.939288 0.394045
vt 0.780307 0.060712
vt 0.939288 0.060712
vt 0.939288 0.272621
vt 0.780307 0.272621
vt 0.780307 0.394045
vt 0.939288 0.394045
vt 0.939288 0.605955
vt 0.780307 0.605955
vt 0.967193 0.699473
vt 0.752402 0.699473
vt 0.967193 0.967193
vt 0.752402 0.967193
vt 0.752402 0.699473
vt 0.967193 0.699473
vt 0.752402 0.300527
vt 0.752402 0.032807
vt 0.967193 0.300527
vt 0.967193 0.032807
vt 0.752402 0.633860
vt 0.752402 0.366140
vt 0.967193 0.633860
vt 0.967193 0.366140
vt 0.967193 0.032807
vt 0.752402 0.032807
vt 0.967193 0.300527
vt 0.752402 0.300527
vt 0.967193 0.366140
vt 0.752402 0.366140
vt 0.967193 0.633860
vt 0.752402 0.633860
vt 0.953493 0.713174
vt 0.766102 0.713173
vt 0.953493 0.953493
vt 0.766102 0.953493
vt 0.766102 0.713173
vt 0.953493 0.953493
vt 0.766102 0.286827
vt 0.766102 0.046507
vt 0.953493 0.286827
vt 0.953493 0.046507
vt 0.766102 0.620160
vt 0.766102 0.379840
vt 0.953493 0.620160
vt 0.953493 0.379840
vt 0.953493 0.046507
vt 0.766102 0.046507
vt 0.766102 0.286827
vt 0.953493 0.379840
vt 0.766102 0.379840
vt 0.953493 0.620160
vt 0.766102 0.620160
s 0
usemtl Material_wall
f 73/1/1 74/2/1 75/3/1 76/4/1
f 77/5/2 78/4/2 79/3/2 80/2/2
f 13/6/3 3/7/3 7/7/3 17/6/3
f 99/8/4 1/9/4 5/9/4 100/10/4
f 15/11/5 2/12/5 6/12/5 19/13/5
f 10/14/6 4/15/6 8/15/6 12/14/6
f 97/16/6 10/14/6 12/14/6 98/16/6
f 2/12/4 9/17/4 11/17/4 6/12/4
f 104/18/7 98/16/7 12/14/7 21/19/7
f 102/20/8 24/21/8 10/14/8 97/16/8
f 99/8/8 9/17/8 23/22/8 101/23/8
f 101/23/8 23/22/8 24/21/8 102/20/8
f 100/10/7 103/24/7 22/25/7 11/17/7
f 103/24/7 104/18/7 21/19/7 22/25/7
f 4/15/5 16/26/5 20/26/5 8/15/5
f 16/26/5 15/11/5 19/13/5 20/26/5
f 1/9/3 14/27/3 18/27/3 5/9/3
f 14/27/3 13/6/3 17/6/3 18/27/3
f 81/28/2 82/29/2 83/30/2 84/31/2
f 85/32/2 86/33/2 87/34/2 88/35/2
f 89/36/1 90/37/1 91/38/1 92/39/1
f 93/40/1 94/41/1 95/42/1 96/43/1
f 24/21/1 16/26/1 26/44/1 25/45/1
f 16/26/1 4/15/1 27/46/1 26/44/1
f 4/15/1 10/14/1 28/47/1 27/46/1
f 10/14/1 24/21/1 25/45/1 28/47/1
f 21/19/2 12/14/2 30/47/2 29/48/2
f 12/14/2 8/15/2 31/46/2 30/47/2
f 8/15/2 20/26/2 32/49/2 31/46/2
f 20/26/2 21/19/2 29/48/2 32/49/2
f 11/17/2 22/25/2 34/50/2 33/51/2
f 22/25/2 19/13/2 35/52/2 34/50/2
f 19/13/2 6/12/2 36/53/2 35/52/2
f 6/12/2 11/17/2 33/51/2 36/53/2
f 22/25/2 21/19/2 38/54/2 37/55/2
f 21/19/2 20/26/2 39/56/2 38/54/2
f 20/26/2 19/13/2 40/57/2 39/56/2
f 19/13/2 22/25/2 37/55/2 40/57/2
f 9/17/1 2/12/1 42/58/1 41/59/1
f 2/12/1 15/11/1 43/60/1 42/58/1
f 15/11/1 23/22/1 44/61/1 43/60/1
f 23/22/1 9/17/1 41/59/1 44/61/1
f 23/22/1 15/11/1 46/62/1 45/63/1
f 15/11/1 16/26/1 47/64/1 46/62/1
f 16/26/1 24/21/1 48/65/1 47/64/1
f 24/21/1 23/22/1 45/63/1 48/65/1
f 25/45/9 26/44/9 50/66/9 49/67/9
f 26/44/10 27/46/10 51/68/10 50/66/10
f 27/46/11 28/47/11 52/69/11 51/68/11
f 28/47/12 25/45/12 49/67/12 52/69/12
f 29/48/13 30/47/13 54/69/13 53/70/13
f 30/47/14 31/46/14 55/71/14 54/69/14
f 31/46/15 32/49/15 56/66/15 55/71/15
f 32/49/16 29/48/16 53/70/16 56/66/16
f 33/51/13 34/50/13 58/72/13 57/73/13
f 34/50/14 35/52/14 59/74/14 58/72/14
f 35/52/15 36/53/15 60/75/15 59/74/15
f 36/53/16 33/51/16 57/73/16 60/75/16
f 37/55/13 38/54/13 62/76/13 61/77/13
f 38/54/14 39/56/14 63/78/14 62/76/14
f 39/56/15 40/57/15 64/79/15 63/78/15
f 40/57/16 37/55/16 61/77/16 64/79/16
f 41/59/9 42/58/9 66/80/9 65/81/9
f 42/58/10 43/60/10 67/74/10 66/80/10
f 43/60/11 44/61/11 68/82/11 67/74/11
f 44/61/12 41/59/12 65/81/12 68/82/12
f 45/63/9 46/62/9 70/83/9 69/84/9
f 46/62/10 47/64/10 71/85/10 70/83/10
f 47/64/11 48/65/11 72/86/11 71/85/11
f 48/65/12 45/63/12 69/84/12 72/86/12
f 49/67/17 50/66/17 74/2/17 73/1/17
f 50/66/18 51/68/18 75/3/18 74/2/18
f 51/68/19 52/69/19 76/4/19 75/3/19
f 52/69/20 49/67/20 73/1/20 76/4/20
f 53/70/21 54/69/21 78/4/21 77/5/21
f 54/69/22 55/71/22 79/3/22 78/4/22
f 55/71/23 56/66/23 80/2/23 79/3/23
f 56/66/24 53/70/24 77/5/24 80/2/24
f 57/73/21 58/72/21 82/29/21 81/28/21
f 58/72/22 59/74/22 83/30/22 82/29/22
f 59/74/23 60/75/23 84/31/23 83/30/23
f 60/75/24 57/73/24 81/28/24 84/31/24
f 61/77/21 62/76/21 86/33/21 85/32/21
f 62/76/22 63/78/22 87/34/22 86/33/22
f 63/78/23 64/79/23 88/35/23 87/34/23
f 64/79/24 61/77/24 85/32/24 88/35/24
f 65/81/17 66/80/17 90/37/17 89/36/17
f 66/80/18 67/74/18 91/38/18 90/37/18
f 67/74/19 68/82/19 92/39/19 91/38/19
f 68/82/20 65/81/20 89/36/20 92/39/20
f 69/84/17 70/83/17 94/41/17 93/40/17
f 70/83/18 71/85/18 95/42/18 94/41/18
f 71/85/19 72/86/19 96/43/19 95/42/19
f 72/86/20 69/84/20 93/40/20 96/43/20
f 18/27/2 17/6/2 104/18/2 103/24/2
f 5/9/2 18/27/2 103/24/2 100/10/2
f 14/27/1 101/23/1 102/20/1 13/6/1
f 1/9/1 99/8/1 101/23/1 14/27/1
f 13/6/1 102/20/1 97/16/1 3/7/1
f 17/6/2 7/7/2 98/16/2 104/18/2
f 3/7/6 97/16/6 98/16/6 7/7/6
f 9/17/4 99/8/4 100/10/4 11/17/4
